<svg xmlns="http://www.w3.org/2000/svg" viewBox="0 0 1039 256"><g fill-rule="evenodd"><path d="M196 0c33.137 0 60 26.863 60 60v136c0 33.137-26.863 60-60 60H60c-33.137 0-60-26.863-60-60V60C0 26.863 26.863 0 60 0h136Zm-68 64c-35.346 0-64 28.654-64 64 0 35.346 28.654 64 64 64 35.346 0 64-28.654 64-64 0-35.346-28.654-64-64-64Zm17 15c17.673 0 32 14.327 32 32 0 17.673-14.327 32-32 32-17.673 0-32-14.327-32-32 0-17.673 14.327-32 32-32Z"/><path fill-rule="nonzero" d="M393.352 102.479C390.347 71.21 363.308 65 347.642 65c-24.68 0-46.14 15.634-46.14 40.263 0 16.062 12.876 26.128 28.328 31.054 22.747 8.78 31.546 9.852 31.546 17.99 0 5.782-6.438 9.209-12.447 9.209-1.502 0-12.017 0-13.52-10.922H300C303.219 183.862 330.473 192 348.5 192c26.396 0 48.5-15.42 48.5-41.548 0-25.7-21.46-31.697-41.633-37.265-9.442-2.784-18.24-6.425-18.24-11.779 0-3.212 2.574-7.924 10.085-7.924 10.516 0 10.945 6.425 11.16 8.995h34.98Zm131.869 38.464c2.79-21.882-1.716-40.975-16.734-57.065C497.33 72.08 481.669 65 463.432 65 427.174 65 401 95.677 401 128.93c0 35.396 28.964 63.07 63.076 63.07 12.23 0 24.03-3.647 33.898-10.726 10.084-6.865 18.451-17.163 24.244-30.463h-36.473c-4.29 6.221-10.298 11.155-21.669 11.155-13.945 0-25.96-8.366-27.462-21.023h88.607Zm-88.177-27.03c.858-5.579 8.152-18.88 26.603-18.88 18.45 0 25.745 13.301 26.604 18.88h-53.207Zm217.177 27.03c2.79-21.882-1.716-40.975-16.734-57.065C626.33 72.08 610.669 65 592.432 65 556.174 65 530 95.677 530 128.93c0 35.396 28.964 63.07 63.076 63.07 12.23 0 24.03-3.647 33.898-10.726 10.084-6.865 18.451-17.163 24.244-30.463h-36.473c-4.29 6.221-10.298 11.155-21.669 11.155-13.945 0-25.96-8.366-27.462-21.023h88.607Zm-88.177-27.03c.858-5.579 8.152-18.88 26.603-18.88 18.45 0 25.745 13.301 26.604 18.88h-53.207ZM659 191.666h34.185v-16.39C698.13 183.852 711.03 192 727.8 192c30.315 0 60.2-21.441 60.2-64.324 0-45.027-33.755-62.823-58.695-62.823-4.945 0-21.93 0-34.615 13.508V33H659v158.666Zm93.31-63.347c0 15.652-11.61 30.447-29.885 30.447-17.845 0-29.025-14.151-29.025-30.661 0-14.795 10.75-30.018 29.67-30.018 17.63 0 29.24 14.794 29.24 30.018v.214ZM855.5 65c42.9 0 63.5 34.225 63.5 63.5S898.4 192 855.5 192 792 157.775 792 128.5v-.215C792 99.225 812.6 65 855.5 65ZM872 80c-17.673 0-32 14.327-32 32 0 17.673 14.327 32 32 32 17.673 0 32-14.327 32-32 0-17.673-14.327-32-32-32Zm67.49 69.057 30.831 5.912L946.136 192h-42.807l36.16-42.943ZM943.592 65l26.729 38.944L996.836 65H1039l-47.49 63.057L1037.527 192h-43.449l-23.757-37.031-21.831-26.912L901 65h42.592Z"/></g></svg>