<svg xmlns="http://www.w3.org/2000/svg" viewBox="0 0 433 95"><path d="M141.72549 52.263566c2.210785.739018 4.237337 1.494832 6.079657 2.267442s3.450163 1.696382 4.823529 2.771318c1.373366 1.074935 2.445262 2.368217 3.215687 3.879845C156.614788 62.693798 157 64.490956 157 66.573643v.100776c0 5.105943-1.691585 9.103359-5.074755 11.992248C148.542075 81.555556 143.802288 83 137.705882 83c-3.818627 0-7.570261-.655039-11.254902-1.965116-3.68464-1.310078-7.134804-3.174419-10.35049-5.593024L116 75.341085l.10049-.100775 6.833334-10.782946.10049.100776c2.009804 2.14987 4.287581 3.779069 6.833333 4.887596 2.545752 1.108528 5.258987 1.662791 8.139706 1.662791 3.952614 0 5.928922-1.276486 5.928922-3.829457 0-1.209303-.636438-2.116279-1.909314-2.72093-1.272876-.604652-2.780229-1.175711-4.522059-1.713179-.334967-.134367-.653186-.218346-.954657-.251938-.30147-.033591-.619689-.117571-.954657-.251938-2.009804-.537467-4.019608-1.125323-6.029412-1.763566-2.009803-.638243-3.818627-1.511628-5.42647-2.620155s-2.930964-2.51938-3.969363-4.232558-1.557598-3.913436-1.557598-6.600775v-.20155c0-2.351422.435458-4.501292 1.306373-6.449613.870915-1.94832 2.110294-3.627907 3.718137-5.038759 1.607843-1.410853 3.550653-2.502584 5.828431-3.275194C131.743464 31.386305 134.255719 31 137.002451 31c3.215686 0 6.464869.48708 9.747549 1.46124 3.28268.974161 6.330882 2.401809 9.144608 4.282946v.20155l-6.129902 11.186047-.10049-.100775c-1.54085-1.54522-3.450164-2.771318-5.727941-3.678295-2.277778-.906977-4.689543-1.360465-7.235295-1.360465-.468954 0-1.004902.033592-1.607843.100775-.602941.067184-1.155637.235142-1.658088.503876-.502451.268734-.92116.621447-1.256127 1.05814-.334968.436692-.502451 1.058139-.502451 1.864341 0 .604651.267973 1.158915.803921 1.662791s1.222631.97416 2.060049 1.410852c.837418.436693 1.775327.856589 2.813726 1.25969 1.038398.403101 2.060049.77261 3.064951 1.108527.20098 0 .418709.033592.653186.100776.234477.067183.452206.134366.653186.20155ZM242.100386 31c3.546976 0 6.893179.68863 10.03861 2.065891 3.145431 1.377261 5.889318 3.241603 8.23166 5.593024 2.342343 2.351421 4.199486 5.105943 5.571429 8.263566C267.314028 50.080103 268 53.472868 268 57.100775c0 1.948321-.200772 3.829458-.602317 5.643411l-.100386.20155h-38.498069l-1.994025-3.190294-4.430686-7.088775h32.073359c-.936936-2.821706-2.492921-5.139535-4.667953-6.953489-2.175032-1.813953-4.734878-2.72093-7.679537-2.72093-1.80695 0-3.513513.369509-5.119691 1.108527-1.606178.739018-2.994852 1.729974-4.166023 2.972868-1.171171 1.242894-2.091377 2.720931-2.760618 4.434109s-1.003861 3.577519-1.003861 5.593023c0 1.54522.301158 3.140827.903475 4.786822s1.472329 3.140827 2.610039 4.484496c1.137709 1.343669 2.509652 2.468992 4.11583 3.375969 1.606177.906977 3.413127 1.360465 5.420849 1.360465 1.80695 0 3.463321-.251938 4.969112-.755814 1.505792-.503876 2.927928-1.629199 4.266409-3.375969l.100386-.100775.200773.100775 11.644787 5.139535-.200772.20155c-2.409266 3.359174-5.471042 5.979329-9.185328 7.860466C250.181467 82.059432 246.249678 83 242.100386 83c-3.6139 0-7.010296-.671835-10.189189-2.015504-3.178893-1.343669-5.939511-3.191214-8.281853-5.542636-2.342343-2.351421-4.199486-5.105943-5.571429-8.263565C216.685972 64.020672 216 60.661499 216 57.100775c0-3.627907.685972-7.020672 2.057915-10.178294 1.371943-3.157623 3.229086-5.912145 5.571429-8.263566 2.342342-2.351421 5.10296-4.215763 8.281853-5.593024C235.09009 31.68863 238.486486 31 242.100386 31Zm-55 0c3.546976 0 6.893179.68863 10.03861 2.065891 3.145431 1.377261 5.889318 3.241603 8.23166 5.593024 2.342343 2.351421 4.199486 5.105943 5.571429 8.263566C212.314028 50.080103 213 53.472868 213 57.100775c0 1.948321-.200772 3.829458-.602317 5.643411l-.100386.20155h-38.498069l-6.424711-10.279069h32.073359c-.936936-2.821706-2.492921-5.139535-4.667953-6.953489-2.175032-1.813953-4.734878-2.72093-7.679537-2.72093-1.80695 0-3.513513.369509-5.119691 1.108527-1.606178.739018-2.994852 1.729974-4.166023 2.972868-1.171171 1.242894-2.091377 2.720931-2.760618 4.434109s-1.003861 3.577519-1.003861 5.593023c0 1.54522.301158 3.140827.903475 4.786822s1.472329 3.140827 2.610039 4.484496c1.137709 1.343669 2.509652 2.468992 4.11583 3.375969 1.606177.906977 3.413127 1.360465 5.420849 1.360465 1.80695 0 3.463321-.251938 4.969112-.755814 1.505792-.503876 2.927928-1.629199 4.266409-3.375969l.100386-.100775.200773.100775 11.644787 5.139535-.200772.20155c-2.409266 3.359174-5.471042 5.979329-9.185328 7.860466C195.181467 82.059432 191.249678 83 187.100386 83c-3.6139 0-7.010296-.671835-10.189189-2.015504-3.178893-1.343669-5.939511-3.191214-8.281853-5.542636-2.342343-2.351421-4.199486-5.105943-5.571429-8.263565C161.685972 64.020672 161 60.661499 161 57.100775c0-3.627907.685972-7.020672 2.057915-10.178294 1.371943-3.157623 3.229086-5.912145 5.571429-8.263566 2.342342-2.351421 5.10296-4.215763 8.281853-5.593024C180.09009 31.68863 183.486486 31 187.100386 31Zm114.958115.454802c3.552712 0 6.904327.66855 10.054845 2.00565 3.150514 1.3371 5.898844 3.175612 8.244974 5.515537 2.34613 2.339924 4.20627 5.080979 5.58044 8.223164C327.31292 50.341337 328 53.684087 328 57.227401c0 3.543315-.68708 6.886064-2.06124 10.028249-1.37417 3.142184-3.23431 5.883239-5.58044 8.223164-2.34613 2.339924-5.09446 4.178436-8.244974 5.515536C308.962828 82.33145 305.611213 83 302.058501 83c-6.904327 0-12.166362-2.54049-15.786106-7.621469v6.819209H273V12h13.372943v45.227401c0 1.938795.368678 3.74388 1.106033 5.415254.737356 1.671375 1.726082 3.125471 2.966179 4.362289 1.240098 1.236817 2.714808 2.222928 4.424132 2.958333 1.709324.735405 3.535954 1.103107 5.47989 1.103107 1.876905 0 3.670019-.367702 5.379342-1.103107 1.709324-.735405 3.184034-1.721516 4.424132-2.958333 1.240097-1.236818 2.228824-2.690914 2.966179-4.362289.737355-1.671374 1.10603-3.476459 1.10603-5.415254 0-1.938795-.368675-3.743879-1.10603-5.415254-.737355-1.671375-1.726082-3.142185-2.966179-4.412429-1.240098-1.270245-2.714808-2.256356-4.424132-2.958334-1.709323-.701977-3.502437-1.052966-5.379342-1.052966-1.809872 0-3.619744.367703-5.429616 1.103107l-.100548.100283-.100549-.200565-4.926874-9.025424.100549-.100282c3.284583-2.54049 7.340037-3.810735 12.166362-3.810735ZM358 31c3.6139 0 6.99356.68863 10.139 2.065891 3.14543 1.377261 5.88931 3.241603 8.23166 5.593024 2.34234 2.351421 4.19948 5.105943 5.57142 8.263566C383.31403 50.080103 384 53.439276 384 57c0 3.560724-.68597 6.919897-2.05792 10.077519-1.37194 3.157623-3.22908 5.912145-5.57142 8.263566-2.34235 2.351421-5.08623 4.215763-8.23166 5.593024C364.99356 82.31137 361.6139 83 358 83c-3.6139 0-6.99356-.68863-10.139-2.065891-3.14543-1.377261-5.88931-3.241603-8.23166-5.593024-2.34234-2.351421-4.19948-5.105943-5.57142-8.263566C332.68597 63.919897 332 60.560724 332 57c0-3.560724.68597-6.919897 2.05792-10.077519 1.37194-3.157623 3.22908-5.912145 5.57142-8.263566 2.34235-2.351421 5.08623-4.215763 8.23166-5.593024C351.00644 31.68863 354.3861 31 358 31Zm38.3 1 10.1 17 10.2-17H433l-.2.1-18.2 25.1L433 82h-16.4v-.1l-18.2-24.6L380.1 32h16.2Zm-2.9 31.8 12.2 5.6h-.002L396.3 82H380l.001-.001L393.4 63.8Zm-27.28222-26.009302c-1.5216 0-2.9519.288095-4.2909.864285-1.33901.576191-2.51064 1.34881-3.51489 2.317858-1.00426.969047-1.79549 2.121428-2.37369 3.457142-.57821 1.335715-.86731 2.736905-.86731 4.203572 0 1.571428.2891 3.025.86731 4.360714.5782 1.335714 1.36943 2.514286 2.37369 3.535714 1.00425 1.021429 2.17588 1.820238 3.51489 2.396429 1.339.57619 2.7693.864286 4.2909.864286 1.5216 0 2.93668-.288096 4.24526-.864286 1.30857-.576191 2.46499-1.375 3.46924-2.396429 1.00425-1.021428 1.79548-2.2 2.37369-3.535714.57821-1.335714.86731-2.789286.86731-4.360714 0-1.466667-.2891-2.867857-.86731-4.203572-.57821-1.335714-1.36944-2.488095-2.37369-3.457142-1.00425-.969048-2.16067-1.741667-3.46924-2.317858-1.30858-.57619-2.72366-.864285-4.24526-.864285ZM75 0c11.045695 0 20 8.954305 20 20v55c0 11.045695-8.954305 20-20 20H20C8.954305 95 0 86.045695 0 75V20C0 8.954305 8.954305 0 20 0h55ZM47.650316 21.044304c-14.694095 0-26.606012 11.911917-26.606012 26.606012 0 14.694095 11.911917 26.606013 26.606012 26.606013 14.694095 0 26.606013-11.911918 26.606013-26.606013S62.344411 21.044304 47.650316 21.044304Zm7.792722 5.306962c6.351275 0 11.5 5.148725 11.5 11.5 0 6.351274-5.148725 11.5-11.5 11.5s-11.5-5.148726-11.5-11.5c0-6.351275 5.148725-11.5 11.5-11.5Z"/></svg>