<svg xmlns="http://www.w3.org/2000/svg" viewBox="0 0 433 95"><path d="m142 52 6 3 5 2 3 4 1 6c0 5-2 9-5 12s-8 4-14 4l-12-2c-3-1-7-3-10-6l7-11v1a21 21 0 0 0 15 6c4 0 6-1 6-4l-2-2a34 34 0 0 0-6-3l-6-1-6-3-4-4-1-7 1-7 4-5 5-3 8-1a34 34 0 0 1 19 6l-6 11-6-4a19 19 0 0 0-9-1l-2 1-1 1v3l3 2a28 28 0 0 0 7 2Zm100-21 10 2a26 26 0 0 1 16 24l-1 6h-38l-2-3-5-7h32c0-3-2-5-4-7s-5-3-8-3l-5 1a13 13 0 0 0-7 8l-1 5 1 5a15 15 0 0 0 7 8l5 1 5-1c2 0 3-1 4-3h1l11 5c-2 4-5 6-9 8a26 26 0 0 1-22 1 26 26 0 0 1-16-24 25 25 0 0 1 8-18 26 26 0 0 1 18-8Zm-55 0 10 2a26 26 0 0 1 16 24l-1 6h-38l-7-10h32c0-3-2-5-4-7s-5-3-8-3l-5 1a13 13 0 0 0-7 8l-1 5 1 5a15 15 0 0 0 7 8l5 1 5-1c2 0 3-1 4-3h1l11 5c-2 4-5 6-9 8a26 26 0 0 1-22 1 26 26 0 0 1-16-24 25 25 0 0 1 8-18 26 26 0 0 1 18-8Zm115 0a25 25 0 0 1 18 8 26 26 0 0 1 8 18l-2 10a26 26 0 0 1-14 14l-10 2c-7 0-12-3-16-8v7h-13V12h13v45l1 6a14 14 0 0 0 8 7 14 14 0 0 0 11 0 14 14 0 0 0 7-7l1-6-1-5-3-5-4-3a14 14 0 0 0-11 0v1-1l-5-9c3-2 7-4 12-4Zm56 0 10 2a26 26 0 0 1 16 24l-2 10a27 27 0 0 1-14 14l-10 2-10-2a26 26 0 0 1-16-24l2-10a27 27 0 0 1 14-14l10-2Zm38 1 10 17 11-17h16l-18 25 18 25h-16l-19-25-18-25h16Zm-3 32 13 5-10 13h-16l13-18Zm-27-26-4 1-4 2a11 11 0 0 0-3 8 11 11 0 0 0 3 8 11 11 0 0 0 12 2 11 11 0 0 0 6-6 11 11 0 0 0-6-14l-4-1ZM75 0c11 0 20 9 20 20v55c0 11-9 20-20 20H20C9 95 0 86 0 75V20C0 9 9 0 20 0h55ZM48 21a27 27 0 1 0 0 53 27 27 0 0 0 0-53Zm7 5a11 11 0 1 1 0 23 11 11 0 0 1 0-23Z"/></svg>